<svg xmlns="http://www.w3.org/2000/svg" viewBox="0 0 300 400">
  <defs>
    <filter id="sh" x="-8%" y="-6%" width="120%" height="116%">
      <feDropShadow dx="5" dy="8" stdDeviation="6" flood-color="black" flood-opacity="0.45"/>
    </filter>
  </defs>
  <rect x="0" y="0" width="286" height="382" fill="#1a1a1a" rx="2" filter="url(#sh)"/>
  <rect x="20" y="20" width="246" height="342" fill="#f5f0eb"/>
  <rect x="20" y="20" width="2" height="342" fill="black" opacity="0.16"/>
  <rect x="20" y="20" width="246" height="2" fill="black" opacity="0.16"/>
  <polygon points="230,20 272,20 272,84 213,20" fill="white" opacity="0.12"/>
  <rect x="20" y="258" width="246" height="8" fill="#c9a97a"/>
  <rect x="20" y="266" width="246" height="96" fill="#ede4d8"/>

  <rect x="82" y="236" width="112" height="80" fill="#f0eeec" stroke="#252525" stroke-width="1.8"/>
  <rect x="93" y="247" width="90" height="58" fill="#f5f0eb" stroke="#252525" stroke-width="1"/>
  <rect x="101" y="255" width="74" height="43" fill="#d0c8c0"/>
  <rect x="101" y="255" width="74" height="19" fill="#b8c8d0"/>
  <ellipse cx="138" cy="273" rx="18" ry="9" fill="#8fa678"/>
  <rect x="23" y="277" width="53" height="7" fill="#d4b896" stroke="#252525" stroke-width="1"/>
  <path d="M35,277 V284 M50,277 V284 M65,277 V284" stroke="#252525" stroke-width="0.7"/>
  <rect x="24" y="288" width="50" height="6" fill="#9a9a9a" stroke="#252525" stroke-width="1" rx="2"/>
  <path d="M214,232 V245 M209,245 H224 V272 H209 Z" fill="#fbfaf7" stroke="#252525" stroke-width="1.4" stroke-linejoin="round"/>
  <circle cx="216" cy="231" r="3" fill="#6b7f92"/>

  <path d="M55,188 C47,200 43,228 41,258 H136 C134,228 130,200 121,188 C112,184 98,181 88,181 C78,181 64,184 55,188Z" fill="#6b7f92"/>
  <path d="M44,210 Q56,232 80,238" stroke="#252525" stroke-width="11" stroke-linecap="round" fill="none"/>
  <path d="M44,210 Q56,232 80,238" stroke="#6b7f92" stroke-width="8" stroke-linecap="round" fill="none"/>
  <ellipse cx="82" cy="240" rx="8" ry="6" fill="#dfc19a"/>
  <path d="M132,210 Q149,230 145,250" stroke="#252525" stroke-width="11" stroke-linecap="round" fill="none"/>
  <path d="M132,210 Q149,230 145,250" stroke="#6b7f92" stroke-width="8" stroke-linecap="round" fill="none"/>
  <ellipse cx="145" cy="252" rx="8" ry="6" fill="#dfc19a"/>
  <rect x="81" y="178" width="14" height="9" fill="#dfc19a"/>
  <ellipse cx="88" cy="156" rx="19" ry="21" fill="#dfc19a"/>
  <path d="M68,153 Q69,134 88,134 Q107,134 108,153 Z" fill="#2e2e2e"/>
  <rect x="68" y="148" width="40" height="9" fill="#2e2e2e"/>
  <circle cx="81" cy="153" r="1.7" fill="#252525"/>
  <circle cx="95" cy="153" r="1.7" fill="#252525"/>

  <path d="M160,221 C154,230 153,244 151,258 H212 C210,244 208,230 202,221 C197,217 191,215 187,215 C182,215 166,217 160,221Z" fill="#4a607a"/>
  <path d="M154,233 Q158,247 166,252" stroke="#252525" stroke-width="9" stroke-linecap="round" fill="none"/>
  <path d="M154,233 Q158,247 166,252" stroke="#4a607a" stroke-width="6" stroke-linecap="round" fill="none"/>
  <ellipse cx="167" cy="254" rx="7" ry="5" fill="#dfc19a"/>
  <path d="M211,233 Q218,247 210,254" stroke="#252525" stroke-width="9" stroke-linecap="round" fill="none"/>
  <path d="M211,233 Q218,247 210,254" stroke="#4a607a" stroke-width="6" stroke-linecap="round" fill="none"/>
  <ellipse cx="209" cy="256" rx="7" ry="5" fill="#dfc19a"/>
  <path d="M208,254 L194,259" stroke="#252525" stroke-width="2.4" stroke-linecap="round"/>
  <rect x="181" y="209" width="12" height="8" fill="#dfc19a"/>
  <ellipse cx="187" cy="190" rx="16" ry="18" fill="#dfc19a"/>
  <path d="M171,187 Q172,172 187,172 Q202,172 203,187 Z" fill="#2e2e2e"/>
  <rect x="171" y="182" width="32" height="8" fill="#2e2e2e"/>
  <circle cx="181" cy="187" r="1.5" fill="#252525"/>
  <circle cx="193" cy="187" r="1.5" fill="#252525"/>
</svg>
