<svg xmlns="http://www.w3.org/2000/svg" viewBox="0 0 270 360">
  <rect x="7" y="9" width="256" height="346" fill="#000" opacity="0.35" rx="2"/>
  <rect x="252" y="3" width="14" height="346" fill="#2a2a2a" rx="1"/>
  <rect x="0" y="0" width="254" height="347" fill="#1a1a1a" rx="2"/>
  <rect x="16" y="14" width="222" height="3" fill="#000" opacity="0.15"/>
  <rect x="16" y="14" width="3" height="318" fill="#000" opacity="0.1"/>
  <rect x="16" y="14" width="222" height="318" fill="#f5f0eb"/>
  <polygon points="212,14 238,14 238,68 198,14" fill="white" opacity="0.16"/>
  <rect x="16" y="252" width="222" height="6" fill="#c9a97a"/>
  <rect x="16" y="258" width="222" height="74" fill="#ede4d8"/>
  <rect x="20" y="162" width="52" height="86" fill="#e4e0dc" stroke="#252525" stroke-width="1.5" rx="1"/>
  <rect x="24" y="234" width="44" height="8" fill="#bfbbb7" stroke="#252525" stroke-width="1.2"/>
  <path d="M30,162 L30,148 L58,148 L58,162" fill="none" stroke="#252525" stroke-width="1.8"/>
  <rect x="38" y="157" width="12" height="7" fill="#555"/>
  <circle cx="26" cy="184" r="10" fill="none" stroke="#9a7b4f" stroke-width="2"/>
  <circle cx="26" cy="184" r="4" fill="#9a7b4f"/>
  <rect x="90" y="244" width="116" height="86" fill="white" stroke="#252525" stroke-width="1.5" rx="1"/>
  <rect x="101" y="254" width="32" height="25" fill="none" stroke="#9a7b4f" stroke-width="1"/>
  <circle cx="155" cy="267" r="12" fill="none" stroke="#9a7b4f" stroke-width="1"/>
  <line x1="101" y1="283" x2="201" y2="283" stroke="#9a7b4f" stroke-width="0.8"/>
  <line x1="101" y1="291" x2="178" y2="291" stroke="#9a7b4f" stroke-width="0.8"/>
  <circle cx="46" cy="290" r="12" fill="#888" stroke="#252525" stroke-width="1.2"/>
  <circle cx="46" cy="290" r="5" fill="#f5f0eb" stroke="#252525" stroke-width="1"/>
  <rect x="43" y="276" width="6" height="4" fill="#888"/>
  <rect x="43" y="300" width="6" height="4" fill="#888"/>
  <rect x="32" y="287" width="4" height="6" fill="#888"/>
  <rect x="58" y="287" width="4" height="6" fill="#888"/>
  <circle cx="66" cy="300" r="7" fill="#888" stroke="#252525" stroke-width="1"/>
  <circle cx="66" cy="300" r="3" fill="#f5f0eb"/>
  <rect x="174" y="310" width="62" height="6" fill="#d4b896" stroke="#252525" stroke-width="1"/>
  <line x1="184" y1="310" x2="184" y2="316" stroke="#252525" stroke-width="0.7"/>
  <line x1="194" y1="310" x2="194" y2="316" stroke="#252525" stroke-width="0.7"/>
  <line x1="204" y1="310" x2="204" y2="316" stroke="#252525" stroke-width="0.7"/>
  <line x1="214" y1="310" x2="214" y2="316" stroke="#252525" stroke-width="0.7"/>
  <line x1="224" y1="310" x2="224" y2="316" stroke="#252525" stroke-width="0.7"/>
  <path d="M108,175 C100,185 97,220 95,252 L195,252 C193,220 190,185 182,175 C174,170 158,168 143,168 C128,168 116,170 108,175Z" fill="#f0efed"/>
  <path d="M119,177 C113,187 110,220 109,252 L181,252 C180,220 177,187 171,177 C165,173 155,171 143,171 C131,171 125,173 119,177Z" fill="#6f7f53"/>
  <rect x="136" y="214" width="18" height="13" fill="#5a6e42" rx="1"/>
  <line x1="119" y1="178" x2="130" y2="168" stroke="#6f7f53" stroke-width="1.8"/>
  <line x1="171" y1="178" x2="160" y2="168" stroke="#6f7f53" stroke-width="1.8"/>
  <path d="M97,197 Q76,217 82,248" stroke="#252525" stroke-width="10" stroke-linecap="round" fill="none"/>
  <path d="M97,197 Q76,217 82,248" stroke="#f0efed" stroke-width="7" stroke-linecap="round" fill="none"/>
  <ellipse cx="82" cy="251" rx="8" ry="6" fill="#dfc19a"/>
  <path d="M193,197 Q214,217 210,248" stroke="#252525" stroke-width="10" stroke-linecap="round" fill="none"/>
  <path d="M193,197 Q214,217 210,248" stroke="#f0efed" stroke-width="7" stroke-linecap="round" fill="none"/>
  <ellipse cx="210" cy="251" rx="8" ry="6" fill="#dfc19a"/>
  <line x1="208" y1="249" x2="190" y2="263" stroke="#c4956a" stroke-width="3" stroke-linecap="round"/>
  <line x1="190" y1="263" x2="187" y2="266" stroke="#252525" stroke-width="2" stroke-linecap="round"/>
  <rect x="136" y="166" width="14" height="8" fill="#dfc19a"/>
  <ellipse cx="143" cy="144" rx="20" ry="22" fill="#dfc19a"/>
  <path d="M123,140 Q123,122 143,122 Q163,122 163,140" fill="#2e2e2e"/>
  <rect x="123" y="135" width="40" height="10" fill="#2e2e2e"/>
  <circle cx="137" cy="140" r="2" fill="#252525"/>
  <circle cx="149" cy="140" r="2" fill="#252525"/>
  <path d="M139,149 Q143,153 147,149" fill="none" stroke="#252525" stroke-width="1.4" stroke-linecap="round"/>
</svg>
