<svg xmlns="http://www.w3.org/2000/svg" viewBox="0 0 300 400">
  <defs>
    <filter id="sh" x="-8%" y="-6%" width="120%" height="116%">
      <feDropShadow dx="5" dy="8" stdDeviation="6" flood-color="black" flood-opacity="0.45"/>
    </filter>
  </defs>
  <rect x="0" y="0" width="286" height="382" fill="#1a1a1a" rx="2" filter="url(#sh)"/>
  <rect x="20" y="20" width="246" height="342" fill="#f5f0eb"/>
  <rect x="20" y="20" width="2" height="342" fill="black" opacity="0.16"/>
  <rect x="20" y="20" width="246" height="2" fill="black" opacity="0.16"/>
  <polygon points="230,20 272,20 272,84 213,20" fill="white" opacity="0.12"/>
  <rect x="20" y="316" width="246" height="46" fill="#ede4d8"/>
  <line x1="20" y1="316" x2="266" y2="316" stroke="#d4c9b8" stroke-width="1"/>

  <path d="M92,199 C82,214 78,253 76,316 H200 C198,253 194,214 184,199 C176,193 164,190 148,190 C132,190 101,193 92,199Z" fill="#f0eeec" stroke="#d8d4ce" stroke-width="1"/>
  <path d="M85,209 L195,296" stroke="#333" stroke-width="5" stroke-linecap="round"/>
  <rect x="181" y="286" width="27" height="23" fill="#222" rx="3"/>
  <path d="M186,286 Q188,277 195,276 Q201,277 203,286" fill="none" stroke="#444" stroke-width="1.6"/>

  <rect x="92" y="245" width="92" height="69" fill="#7a8f7a" rx="2"/>
  <rect x="87" y="232" width="102" height="18" fill="#697e69" rx="2"/>
  <rect x="136" y="231" width="9" height="84" fill="white" opacity="0.82"/>
  <rect x="87" y="268" width="102" height="9" fill="white" opacity="0.82"/>
  <path d="M140,231 Q124,222 121,212 Q119,203 130,204 Q139,209 140,231Z" fill="white" opacity="0.86"/>
  <path d="M149,231 Q165,222 168,212 Q170,203 159,204 Q150,209 149,231Z" fill="white" opacity="0.86"/>
  <circle cx="144" cy="231" r="5" fill="white"/>

  <path d="M79,221 Q75,252 94,264" stroke="#252525" stroke-width="11" stroke-linecap="round" fill="none"/>
  <path d="M79,221 Q75,252 94,264" stroke="#f0eeec" stroke-width="8" stroke-linecap="round" fill="none"/>
  <ellipse cx="95" cy="266" rx="8" ry="6" fill="#dfc19a"/>
  <path d="M197,221 Q211,252 188,268" stroke="#252525" stroke-width="11" stroke-linecap="round" fill="none"/>
  <path d="M197,221 Q211,252 188,268" stroke="#f0eeec" stroke-width="8" stroke-linecap="round" fill="none"/>
  <ellipse cx="186" cy="270" rx="8" ry="6" fill="#dfc19a"/>

  <circle cx="174" cy="162" r="5" fill="#c4956a"/>
  <rect x="141" y="186" width="14" height="9" fill="#dfc19a"/>
  <ellipse cx="148" cy="162" rx="21" ry="23" fill="#dfc19a"/>
  <path d="M126,158 Q127,138 148,138 Q169,138 170,158 Z" fill="#2e2e2e"/>
  <rect x="126" y="152" width="44" height="10" fill="#2e2e2e"/>
  <circle cx="149" cy="137" r="12" fill="#2e2e2e"/>
  <circle cx="141" cy="159" r="1.8" fill="#252525"/>
  <circle cx="155" cy="159" r="1.8" fill="#252525"/>
</svg>
