<svg xmlns="http://www.w3.org/2000/svg" viewBox="0 0 300 400">
  <defs>
    <filter id="sh" x="-8%" y="-6%" width="120%" height="116%">
      <feDropShadow dx="5" dy="8" stdDeviation="6" flood-color="black" flood-opacity="0.45"/>
    </filter>
  </defs>
  <rect x="0" y="0" width="286" height="382" fill="#1a1a1a" rx="2" filter="url(#sh)"/>
  <rect x="20" y="20" width="246" height="342" fill="#f5f0eb"/>
  <rect x="20" y="20" width="2" height="342" fill="black" opacity="0.16"/>
  <rect x="20" y="20" width="246" height="2" fill="black" opacity="0.16"/>
  <polygon points="230,20 272,20 272,84 213,20" fill="white" opacity="0.12"/>
  <rect x="20" y="268" width="246" height="8" fill="#c9a97a"/>
  <rect x="20" y="276" width="246" height="86" fill="#ede4d8"/>

  <rect x="23" y="255" width="56" height="38" fill="#dedbd6" stroke="#252525" stroke-width="1.1" rx="1"/>
  <rect x="16" y="263" width="56" height="38" fill="#d0ccc6" stroke="#252525" stroke-width="1.1" rx="1"/>
  <ellipse cx="44" cy="281" rx="12" ry="8" fill="#8fa678"/>
  <path d="M44,273 V289" stroke="#6e8560" stroke-width="1.3"/>
  <rect x="203" y="257" width="50" height="35" fill="#dedbd6" stroke="#252525" stroke-width="1.1" rx="1"/>
  <rect x="198" y="262" width="50" height="35" fill="#d0ccc6" stroke="#252525" stroke-width="1.1" rx="1"/>
  <ellipse cx="223" cy="276" rx="10" ry="7" fill="#c4b896"/>

  <rect x="108" y="172" width="78" height="106" fill="#1a1a1a" rx="2"/>
  <rect x="114" y="178" width="66" height="94" fill="#f5f0eb"/>
  <rect x="119" y="207" width="56" height="61" fill="#bcccd4"/>
  <rect x="119" y="239" width="56" height="29" fill="#c4b896"/>
  <polygon points="119,239 147,209 175,239" fill="#8fa678"/>
  <circle cx="168" cy="193" r="5" fill="#e8c97a"/>
  <circle cx="121" cy="184" r="2.2" fill="#888"/>
  <circle cx="174" cy="184" r="2.2" fill="#888"/>
  <circle cx="121" cy="267" r="2.2" fill="#888"/>
  <circle cx="174" cy="267" r="2.2" fill="#888"/>
  <path d="M192,164 L175,199 M197,168 L180,202" stroke="#8a8a8a" stroke-width="2.2" stroke-linecap="round"/>

  <path d="M116,178 C108,190 105,225 103,268 H193 C191,225 188,190 180,178 C171,174 161,172 148,172 C135,172 125,174 116,178Z" fill="#9a7b4f"/>
  <path d="M104,207 Q88,227 90,258" stroke="#252525" stroke-width="10" stroke-linecap="round" fill="none"/>
  <path d="M104,207 Q88,227 90,258" stroke="#9a7b4f" stroke-width="7" stroke-linecap="round" fill="none"/>
  <ellipse cx="90" cy="261" rx="8" ry="6" fill="#dfc19a"/>
  <path d="M192,203 Q207,179 194,162" stroke="#252525" stroke-width="10" stroke-linecap="round" fill="none"/>
  <path d="M192,203 Q207,179 194,162" stroke="#9a7b4f" stroke-width="7" stroke-linecap="round" fill="none"/>
  <ellipse cx="194" cy="159" rx="8" ry="6" fill="#dfc19a"/>
  <rect x="141" y="168" width="14" height="9" fill="#dfc19a"/>
  <ellipse cx="148" cy="144" rx="20" ry="22" fill="#dfc19a"/>
  <path d="M127,141 Q128,121 148,121 Q168,121 169,141 Z" fill="#2e2e2e"/>
  <rect x="127" y="135" width="42" height="9" fill="#2e2e2e"/>
  <circle cx="141" cy="141" r="1.8" fill="#252525"/>
  <circle cx="155" cy="141" r="1.8" fill="#252525"/>
</svg>
